<svg width="19.145752" height="16.056885" viewBox="0 0 19.1458 16.0569" fill="none" xmlns="http://www.w3.org/2000/svg" xmlns:xlink="http://www.w3.org/1999/xlink">
	<desc>
			Created with Pixso.
	</desc>
	<defs/>
	<g style="mix-blend-mode:normal">
		<path id="Path 442" d="M17.85 0.1L0.89 6.64C-0.27 7.11 -0.26 7.75 0.68 8.04L5.03 9.4L15.11 3.04C15.58 2.75 16.02 2.91 15.66 3.22L7.5 10.59L7.2 15.08C7.64 15.08 7.83 14.88 8.08 14.64L10.19 12.58L14.59 15.83C15.4 16.28 15.99 16.05 16.19 15.08L19.07 1.47C19.37 0.29 18.62 -0.25 17.85 0.1Z" fill="#F9FAF3" fill-opacity="1.000000" fill-rule="nonzero"/>
		<path id="Path 442" d="M0.89 6.64C-0.27 7.11 -0.26 7.75 0.68 8.04L5.03 9.4L15.11 3.04C15.58 2.75 16.02 2.91 15.66 3.22L7.5 10.59L7.2 15.08C7.64 15.08 7.83 14.88 8.08 14.64L10.19 12.58L14.59 15.83C15.4 16.28 15.99 16.05 16.19 15.08L19.07 1.47C19.37 0.29 18.62 -0.25 17.85 0.1L0.89 6.64Z" stroke="#707070" stroke-opacity="0" stroke-width="4.000000"/>
	</g>
</svg>
