<svg width="21" height="21" viewBox="0 0 21 21" fill="none" xmlns="http://www.w3.org/2000/svg">
<path d="M11.969 10.5933C11.969 10.3062 11.9429 10.0277 11.8906 9.75795H7.16572V11.4809H9.99807C9.89365 12.1422 9.56952 12.6664 9.02567 13.0537C8.48182 13.4409 7.86184 13.6345 7.16572 13.6345C6.30426 13.6345 5.56898 13.3234 4.95988 12.7012C4.35077 12.0791 4.04621 11.3373 4.04621 10.4758C4.04621 9.61438 4.35077 8.87257 4.95988 8.25041C5.56898 7.62825 6.30426 7.31717 7.16572 7.31717C7.97496 7.31717 8.64063 7.57387 9.16272 8.08726L10.5202 6.76898C9.58039 5.89882 8.46224 5.46375 7.16572 5.46375C5.77347 5.46375 4.59006 5.95321 3.61549 6.93213C2.64092 7.91105 2.15363 9.09229 2.15363 10.4758C2.15363 11.8594 2.64092 13.0406 3.61549 14.0195C4.59006 14.9985 5.77347 15.4879 7.16572 15.4879C8.60147 15.4879 9.76095 15.0311 10.6442 14.1174C11.5274 13.2038 11.969 12.0291 11.969 10.5933ZM16.472 11.1937H17.8947V9.75795H16.472V8.3222H15.0363V9.75795H13.6005V11.1937H15.0363V12.6295H16.472V11.1937ZM20.0483 10.4758C20.0483 12.2945 19.6002 13.9717 18.704 15.5075C17.8077 17.0433 16.5917 18.2594 15.0558 19.1556C13.52 20.0519 11.8428 20.5 10.0242 20.5C8.20555 20.5 6.52833 20.0519 4.99251 19.1556C3.45669 18.2594 2.24065 17.0433 1.34439 15.5075C0.448129 13.9717 0 12.2945 0 10.4758C0 8.65721 0.448129 6.97999 1.34439 5.44417C2.24065 3.90835 3.45669 2.69231 4.99251 1.79605C6.52833 0.899789 8.20555 0.45166 10.0242 0.45166C11.8428 0.45166 13.52 0.899789 15.0558 1.79605C16.5917 2.69231 17.8077 3.90835 18.704 5.44417C19.6002 6.97999 20.0483 8.65721 20.0483 10.4758Z" fill="#F9FAF3"/>
</svg>
