<svg width="18.174316" height="18.174316" viewBox="0 0 18.1743 18.1743" fill="none" xmlns="http://www.w3.org/2000/svg" xmlns:xlink="http://www.w3.org/1999/xlink">
	<desc>
			Created with Pixso.
	</desc>
	<defs/>
	<g style="mix-blend-mode:normal">
		<path id="Path 440" d="M9.08 0C6.62 0 6.31 0.01 5.34 0.05C4.37 0.09 3.71 0.25 3.13 0.47C2.52 0.7 1.97 1.06 1.52 1.52C1.06 1.97 0.7 2.52 0.47 3.13C0.25 3.71 0.09 4.37 0.05 5.33C0.01 6.3 0 6.61 0 9.08C0 11.55 0.01 11.86 0.05 12.83C0.09 13.8 0.25 14.46 0.47 15.03C0.7 15.63 1.02 16.14 1.52 16.64C2.02 17.15 2.53 17.46 3.13 17.69C3.71 17.92 4.37 18.07 5.33 18.11C6.3 18.16 6.61 18.17 9.08 18.17C11.55 18.17 11.86 18.16 12.83 18.11C13.8 18.07 14.46 17.92 15.04 17.69C15.64 17.46 16.19 17.11 16.64 16.64C17.15 16.14 17.46 15.63 17.69 15.03C17.92 14.46 18.07 13.8 18.11 12.83C18.16 11.86 18.17 11.55 18.17 9.08C18.17 6.61 18.16 6.3 18.11 5.33C18.07 4.37 17.92 3.71 17.69 3.13C17.46 2.52 17.11 1.97 16.64 1.52C16.19 1.06 15.64 0.7 15.03 0.47C14.46 0.25 13.79 0.09 12.83 0.05C11.86 0.01 11.55 0 9.08 0ZM8.27 1.63L9.08 1.63C11.51 1.63 11.8 1.64 12.75 1.69C13.64 1.72 14.12 1.87 14.44 2C14.87 2.16 15.17 2.36 15.49 2.68C15.81 3 16 3.3 16.17 3.72C16.29 4.04 16.44 4.52 16.48 5.41C16.52 6.37 16.53 6.65 16.53 9.08C16.53 11.51 16.52 11.79 16.48 12.75C16.44 13.64 16.29 14.12 16.17 14.44C16.02 14.83 15.79 15.19 15.49 15.48C15.17 15.8 14.87 16 14.44 16.16C14.12 16.29 13.64 16.43 12.75 16.47C11.8 16.52 11.51 16.53 9.08 16.53C6.66 16.53 6.37 16.52 5.41 16.47C4.53 16.43 4.04 16.29 3.72 16.16C3.33 16.02 2.97 15.78 2.68 15.48C2.38 15.19 2.14 14.83 2 14.44C1.87 14.12 1.72 13.64 1.69 12.75C1.64 11.79 1.63 11.51 1.63 9.08C1.63 6.65 1.64 6.37 1.69 5.41C1.73 4.52 1.87 4.04 2 3.72C2.16 3.3 2.36 2.99 2.68 2.67C3 2.36 3.3 2.16 3.72 2C4.04 1.87 4.53 1.72 5.41 1.68C6.25 1.64 6.57 1.63 8.27 1.63ZM13.93 3.14C13.33 3.14 12.84 3.63 12.84 4.23C12.84 4.83 13.33 5.32 13.93 5.32C14.54 5.32 15.02 4.83 15.02 4.23C15.02 3.63 14.54 3.14 13.93 3.14ZM9.08 4.42C6.51 4.42 4.42 6.51 4.42 9.08C4.42 11.66 6.51 13.75 9.08 13.75C11.66 13.75 13.75 11.66 13.75 9.08C13.75 6.51 11.66 4.42 9.08 4.42ZM9.08 6.05C10.76 6.05 12.11 7.41 12.11 9.08C12.11 10.76 10.76 12.11 9.08 12.11C7.41 12.11 6.05 10.76 6.05 9.08C6.05 7.41 7.41 6.05 9.08 6.05Z" fill="#F9FAF3" fill-opacity="1.000000" fill-rule="nonzero"/>
		<path id="Path 440" d="M5.34 0.05C4.37 0.09 3.71 0.25 3.13 0.47C2.52 0.7 1.97 1.06 1.52 1.52C1.06 1.97 0.7 2.52 0.47 3.13C0.25 3.71 0.09 4.37 0.05 5.33C0.01 6.3 0 6.61 0 9.08C0 11.55 0.01 11.86 0.05 12.83C0.09 13.8 0.25 14.46 0.47 15.03C0.7 15.63 1.02 16.14 1.52 16.64C2.02 17.15 2.53 17.46 3.13 17.69C3.71 17.92 4.37 18.07 5.33 18.11C6.3 18.16 6.61 18.17 9.08 18.17C11.55 18.17 11.86 18.16 12.83 18.11C13.8 18.07 14.46 17.92 15.04 17.69C15.64 17.46 16.19 17.11 16.64 16.64C17.15 16.14 17.46 15.63 17.69 15.03C17.92 14.46 18.07 13.8 18.11 12.83C18.16 11.86 18.17 11.55 18.17 9.08C18.17 6.61 18.16 6.3 18.11 5.33C18.07 4.37 17.92 3.71 17.69 3.13C17.46 2.52 17.11 1.97 16.64 1.52C16.19 1.06 15.64 0.7 15.03 0.47C14.46 0.25 13.79 0.09 12.83 0.05C11.86 0.01 11.55 0 9.08 0C6.62 0 6.31 0.01 5.34 0.05ZM9.08 1.63C11.51 1.63 11.8 1.64 12.75 1.69C13.64 1.72 14.12 1.87 14.44 2C14.87 2.16 15.17 2.36 15.49 2.68C15.81 3 16 3.3 16.17 3.72C16.29 4.04 16.44 4.52 16.48 5.41C16.52 6.37 16.53 6.65 16.53 9.08C16.53 11.51 16.52 11.79 16.48 12.75C16.44 13.64 16.29 14.12 16.17 14.44C16.02 14.83 15.79 15.19 15.49 15.48C15.17 15.8 14.87 16 14.44 16.16C14.12 16.29 13.64 16.43 12.75 16.47C11.8 16.52 11.51 16.53 9.08 16.53C6.66 16.53 6.37 16.52 5.41 16.47C4.53 16.43 4.04 16.29 3.72 16.16C3.33 16.02 2.97 15.78 2.68 15.48C2.38 15.19 2.14 14.83 2 14.44C1.87 14.12 1.72 13.64 1.69 12.75C1.64 11.79 1.63 11.51 1.63 9.08C1.63 6.65 1.64 6.37 1.69 5.41C1.73 4.52 1.87 4.04 2 3.72C2.16 3.3 2.36 2.99 2.68 2.67C3 2.36 3.3 2.16 3.72 2C4.04 1.87 4.53 1.72 5.41 1.68C6.25 1.64 6.57 1.63 8.27 1.63L9.08 1.63ZM12.84 4.23C12.84 4.83 13.33 5.32 13.93 5.32C14.54 5.32 15.02 4.83 15.02 4.23C15.02 3.63 14.54 3.14 13.93 3.14C13.33 3.14 12.84 3.63 12.84 4.23ZM4.42 9.08C4.42 11.66 6.51 13.75 9.08 13.75C11.66 13.75 13.75 11.66 13.75 9.08C13.75 6.51 11.66 4.42 9.08 4.42C6.51 4.42 4.42 6.51 4.42 9.08ZM12.11 9.08C12.11 10.76 10.76 12.11 9.08 12.11C7.41 12.11 6.05 10.76 6.05 9.08C6.05 7.41 7.41 6.05 9.08 6.05C10.76 6.05 12.11 7.41 12.11 9.08Z" stroke="#707070" stroke-opacity="0" stroke-width="3.000000"/>
	</g>
</svg>
