<svg width="16.525879" height="19.067444" viewBox="0 0 16.5259 19.0674" fill="none" xmlns="http://www.w3.org/2000/svg" xmlns:xlink="http://www.w3.org/1999/xlink">
	<desc>
			Created with Pixso.
	</desc>
	<defs/>
	<g style="mix-blend-mode:normal">
		<path id="Path 445" d="M14.46 4.07C14.33 4.01 14.21 3.93 14.09 3.85C13.73 3.62 13.41 3.35 13.12 3.04C12.4 2.21 12.14 1.38 12.04 0.79C11.95 0.31 11.99 0 12 0L8.72 0L8.72 12.66C8.72 12.83 8.72 13 8.72 13.16C8.65 14.08 8.12 15.01 7.31 15.47C6.9 15.7 6.43 15.82 5.96 15.82C4.43 15.82 3.19 14.58 3.19 13.04C3.19 11.51 4.43 10.26 5.96 10.26C6.25 10.26 6.53 10.31 6.81 10.4L6.81 7.06C5.13 6.84 3.43 7.34 2.12 8.43C1.56 8.92 1.09 9.51 0.72 10.16C0.58 10.4 0.06 11.36 0 12.91C-0.04 13.8 0.22 14.71 0.35 15.09C0.43 15.31 0.74 16.08 1.24 16.72C1.64 17.23 2.12 17.68 2.66 18.05C4.24 19.13 6.01 19.06 6.01 19.06C6.31 19.05 7.33 19.06 8.49 18.51C9.77 17.9 10.5 17 10.5 17C10.97 16.46 11.34 15.84 11.6 15.17C11.9 14.4 12 13.46 12 13.09L12 6.37C12.04 6.39 12.57 6.74 12.57 6.74C12.57 6.74 13.33 7.23 14.52 7.55C15.37 7.78 16.52 7.82 16.52 7.82L16.52 4.57C16.12 4.62 15.3 4.49 14.46 4.07Z" fill="#F9FAF3" fill-opacity="1.000000" fill-rule="nonzero"/>
		<path id="Path 445" d="M14.09 3.85C13.73 3.62 13.41 3.35 13.12 3.04C12.4 2.21 12.14 1.38 12.04 0.79C11.95 0.31 11.99 0 12 0L8.72 0L8.72 12.66C8.72 12.83 8.72 13 8.72 13.16C8.65 14.08 8.12 15.01 7.31 15.47C6.9 15.7 6.43 15.82 5.96 15.82C4.43 15.82 3.19 14.58 3.19 13.04C3.19 11.51 4.43 10.26 5.96 10.26C6.25 10.26 6.53 10.31 6.81 10.4L6.81 7.06C5.13 6.84 3.43 7.34 2.12 8.43C1.56 8.92 1.09 9.51 0.72 10.16C0.58 10.4 0.06 11.36 0 12.91C-0.04 13.8 0.22 14.71 0.35 15.09C0.43 15.31 0.74 16.08 1.24 16.72C1.64 17.23 2.12 17.68 2.66 18.05C4.24 19.13 6.01 19.06 6.01 19.06C6.31 19.05 7.33 19.06 8.49 18.51C9.77 17.9 10.5 17 10.5 17C10.97 16.46 11.34 15.84 11.6 15.17C11.9 14.4 12 13.46 12 13.09L12 6.37C12.04 6.39 12.57 6.74 12.57 6.74C12.57 6.74 13.33 7.23 14.52 7.55C15.37 7.78 16.52 7.82 16.52 7.82L16.52 4.57C16.12 4.62 15.3 4.49 14.46 4.07C14.33 4.01 14.21 3.93 14.09 3.85Z" stroke="#707070" stroke-opacity="0" stroke-width="0.093750"/>
	</g>
</svg>
