<svg width="164" height="33" viewBox="0 0 164 33" fill="none" xmlns="http://www.w3.org/2000/svg">
<path d="M58.6998 6.09091V25H56.0777L46.4662 11.1321H46.2907V25H43.4378V6.09091H46.0784L55.6991 19.9773H55.8746V6.09091H58.6998ZM66.7671 25.3139C65.8685 25.3139 65.056 25.1477 64.3296 24.8153C63.6033 24.4768 63.0278 23.9875 62.6031 23.3473C62.1845 22.7071 61.9752 21.9223 61.9752 20.9929C61.9752 20.1927 62.1291 19.5341 62.4369 19.017C62.7446 18.5 63.1601 18.0907 63.6833 17.7891C64.2065 17.4875 64.7913 17.2597 65.4376 17.1058C66.0839 16.9519 66.7425 16.835 67.4134 16.755C68.2629 16.6565 68.9523 16.5765 69.4816 16.5149C70.011 16.4472 70.3957 16.3395 70.6357 16.1918C70.8758 16.044 70.9958 15.804 70.9958 15.4716V15.407C70.9958 14.6006 70.7681 13.9759 70.3126 13.5327C69.8633 13.0895 69.1923 12.8679 68.2998 12.8679C67.3704 12.8679 66.6379 13.0741 66.1024 13.4865C65.573 13.8928 65.2068 14.3452 65.0036 14.8438L62.4092 14.2528C62.7169 13.3911 63.1663 12.6955 63.7572 12.1662C64.3543 11.6307 65.0406 11.2429 65.8161 11.0028C66.5917 10.7566 67.4073 10.6335 68.2629 10.6335C68.8292 10.6335 69.4293 10.7012 70.0633 10.8366C70.7035 10.9659 71.3005 11.206 71.8545 11.5568C72.4146 11.9077 72.8732 12.4093 73.2302 13.0618C73.5872 13.7081 73.7657 14.5483 73.7657 15.5824V25H71.0697V23.0611H70.9589C70.7804 23.4181 70.5126 23.7689 70.1556 24.1136C69.7986 24.4583 69.3401 24.7446 68.7799 24.9723C68.2198 25.2 67.5489 25.3139 66.7671 25.3139ZM67.3673 23.098C68.1305 23.098 68.783 22.9472 69.3247 22.6456C69.8725 22.344 70.288 21.95 70.5711 21.4638C70.8604 20.9714 71.0051 20.4451 71.0051 19.8849V18.0568C70.9066 18.1553 70.7158 18.2476 70.4326 18.3338C70.1556 18.4138 69.8386 18.4846 69.4816 18.5462C69.1246 18.6016 68.7768 18.6539 68.4383 18.7031C68.0998 18.7462 67.8166 18.7831 67.5889 18.8139C67.0534 18.8816 66.564 18.9955 66.1208 19.1555C65.6838 19.3156 65.3329 19.5464 65.0683 19.848C64.8097 20.1435 64.6805 20.5374 64.6805 21.0298C64.6805 21.7131 64.9329 22.2301 65.4376 22.581C65.9423 22.9257 66.5856 23.098 67.3673 23.098ZM84.0628 10.8182V13.0341H76.3163V10.8182H84.0628ZM78.3937 7.42045H81.1544V20.8359C81.1544 21.3714 81.2344 21.7746 81.3944 22.0455C81.5545 22.3101 81.7607 22.4917 82.0131 22.5902C82.2716 22.6825 82.5516 22.7287 82.8532 22.7287C83.0748 22.7287 83.2687 22.7133 83.4349 22.6825C83.6011 22.6518 83.7304 22.6271 83.8227 22.6087L84.3213 24.8892C84.1613 24.9508 83.9335 25.0123 83.6381 25.0739C83.3426 25.1416 82.9733 25.1785 82.5301 25.1847C81.8038 25.197 81.1267 25.0677 80.4988 24.7969C79.871 24.526 79.3632 24.1075 78.9754 23.5412C78.5876 22.9749 78.3937 22.264 78.3937 21.4084V7.42045ZM96.1002 19.1186V10.8182H98.8701V25H96.1556V22.544H96.0079C95.6817 23.3011 95.1585 23.9321 94.4383 24.4368C93.7243 24.9354 92.8348 25.1847 91.77 25.1847C90.859 25.1847 90.0526 24.9846 89.3509 24.5845C88.6554 24.1783 88.1076 23.5781 87.7075 22.7841C87.3135 21.9901 87.1166 21.0083 87.1166 19.8388V10.8182H89.8772V19.5064C89.8772 20.4728 90.145 21.2422 90.6805 21.8146C91.216 22.3871 91.9115 22.6733 92.7671 22.6733C93.2842 22.6733 93.7981 22.544 94.309 22.2855C94.8261 22.027 95.2539 21.6361 95.5924 21.1129C95.9371 20.5897 96.1064 19.925 96.1002 19.1186ZM102.579 25V10.8182H105.248V13.071H105.396C105.654 12.3078 106.11 11.7076 106.762 11.2706C107.421 10.8274 108.165 10.6058 108.996 10.6058C109.169 10.6058 109.372 10.612 109.606 10.6243C109.846 10.6366 110.034 10.652 110.169 10.6705V13.3111C110.058 13.2803 109.861 13.2464 109.578 13.2095C109.295 13.1664 109.012 13.1449 108.729 13.1449C108.076 13.1449 107.494 13.2834 106.984 13.5604C106.479 13.8312 106.079 14.2098 105.783 14.696C105.488 15.1761 105.34 15.724 105.34 16.3395V25H102.579ZM123.185 14.2805L120.683 14.7237C120.578 14.4036 120.412 14.099 120.184 13.8097C119.963 13.5204 119.661 13.2834 119.28 13.0987C118.898 12.9141 118.421 12.8217 117.848 12.8217C117.067 12.8217 116.414 12.9972 115.891 13.348C115.368 13.6927 115.106 14.139 115.106 14.6868C115.106 15.1607 115.282 15.5424 115.633 15.8317C115.983 16.121 116.55 16.358 117.331 16.5426L119.584 17.0597C120.889 17.3613 121.862 17.826 122.502 18.4538C123.142 19.0817 123.462 19.8973 123.462 20.9006C123.462 21.75 123.216 22.5071 122.723 23.1719C122.237 23.8305 121.557 24.3475 120.683 24.723C119.815 25.0985 118.809 25.2862 117.664 25.2862C116.076 25.2862 114.78 24.9477 113.777 24.2706C112.773 23.5874 112.158 22.6179 111.93 21.3622L114.598 20.956C114.765 21.6515 115.106 22.1778 115.623 22.5348C116.14 22.8857 116.814 23.0611 117.645 23.0611C118.55 23.0611 119.273 22.8733 119.815 22.4979C120.357 22.1162 120.628 21.6515 120.628 21.1037C120.628 20.6605 120.461 20.2881 120.129 19.9865C119.803 19.6849 119.301 19.4571 118.624 19.3033L116.223 18.777C114.9 18.4754 113.921 17.9953 113.287 17.3366C112.66 16.678 112.346 15.844 112.346 14.8345C112.346 13.9974 112.58 13.2649 113.047 12.6371C113.515 12.0092 114.161 11.5199 114.986 11.169C115.811 10.812 116.756 10.6335 117.821 10.6335C119.353 10.6335 120.56 10.9659 121.44 11.6307C122.32 12.2893 122.902 13.1726 123.185 14.2805ZM128.316 25.1754C127.812 25.1754 127.378 24.9969 127.014 24.6399C126.651 24.2768 126.47 23.8397 126.47 23.3288C126.47 22.8241 126.651 22.3932 127.014 22.0362C127.378 21.6731 127.812 21.4915 128.316 21.4915C128.821 21.4915 129.255 21.6731 129.618 22.0362C129.981 22.3932 130.163 22.8241 130.163 23.3288C130.163 23.6674 130.077 23.9782 129.904 24.2614C129.738 24.5384 129.517 24.7599 129.24 24.9261C128.963 25.0923 128.655 25.1754 128.316 25.1754ZM134.082 25V6.09091H136.843V13.1172H137.009C137.169 12.8217 137.4 12.4801 137.702 12.0923C138.003 11.7045 138.422 11.366 138.957 11.0767C139.493 10.7812 140.201 10.6335 141.081 10.6335C142.226 10.6335 143.248 10.9228 144.146 11.5014C145.045 12.08 145.75 12.9141 146.261 14.0036C146.778 15.093 147.036 16.4041 147.036 17.9368C147.036 19.4695 146.781 20.7836 146.27 21.8793C145.759 22.9687 145.057 23.8089 144.165 24.3999C143.272 24.9846 142.253 25.277 141.109 25.277C140.247 25.277 139.542 25.1323 138.994 24.843C138.453 24.5537 138.028 24.2152 137.72 23.8274C137.412 23.4396 137.175 23.0949 137.009 22.7933H136.778V25H134.082ZM136.788 17.9091C136.788 18.9062 136.932 19.7803 137.222 20.5312C137.511 21.2822 137.929 21.87 138.477 22.2947C139.025 22.7133 139.696 22.9226 140.49 22.9226C141.315 22.9226 142.004 22.7041 142.558 22.267C143.112 21.8239 143.531 21.2237 143.814 20.4666C144.103 19.7095 144.248 18.857 144.248 17.9091C144.248 16.9735 144.106 16.1333 143.823 15.3885C143.546 14.6437 143.128 14.0559 142.567 13.625C142.013 13.1941 141.321 12.9787 140.49 12.9787C139.69 12.9787 139.013 13.1849 138.459 13.5973C137.911 14.0097 137.495 14.5852 137.212 15.3239C136.929 16.0625 136.788 16.9242 136.788 17.9091ZM156.248 25.2862C154.851 25.2862 153.648 24.9877 152.638 24.3906C151.635 23.7874 150.859 22.9411 150.312 21.8516C149.77 20.7559 149.499 19.4725 149.499 18.0014C149.499 16.5488 149.77 15.2685 150.312 14.1605C150.859 13.0526 151.623 12.1877 152.601 11.5661C153.586 10.9444 154.737 10.6335 156.054 10.6335C156.855 10.6335 157.63 10.7659 158.381 11.0305C159.132 11.2952 159.806 11.7107 160.403 12.277C161 12.8433 161.471 13.5788 161.816 14.4837C162.16 15.3823 162.333 16.4749 162.333 17.7614V18.7401H151.059V16.6719H159.628C159.628 15.9455 159.48 15.3023 159.184 14.7422C158.889 14.1759 158.473 13.7296 157.938 13.4034C157.409 13.0772 156.787 12.9141 156.073 12.9141C155.297 12.9141 154.62 13.1049 154.042 13.4865C153.469 13.862 153.026 14.3544 152.712 14.9638C152.404 15.567 152.25 16.2225 152.25 16.9304V18.5462C152.25 19.4941 152.417 20.3004 152.749 20.9652C153.088 21.63 153.558 22.1378 154.162 22.4886C154.765 22.8333 155.47 23.0057 156.276 23.0057C156.799 23.0057 157.276 22.9318 157.707 22.7841C158.138 22.6302 158.51 22.4025 158.824 22.1009C159.138 21.7992 159.378 21.4268 159.544 20.9837L162.157 21.4545C161.948 22.224 161.573 22.898 161.031 23.4766C160.495 24.049 159.821 24.4953 159.009 24.8153C158.203 25.1293 157.282 25.2862 156.248 25.2862Z" fill="#2B3326"/>
<path d="M30.241 1.00019L28.3669 1.62488C25.1551 2.7408 21.7253 3.08325 18.3563 2.62439C14.8161 2.07499 11.1925 2.56319 7.92397 4.02994C4.40335 5.52906 1.88154 8.70924 1.22418 12.4789C0.559218 16.0838 1.38785 19.8042 3.51991 22.7862C3.42621 23.1142 3.3325 23.4422 3.25442 23.7701C2.62011 26.4672 2.3056 29.2297 2.31739 32.0004L5.44083 32.0004C5.58762 29.7325 5.89554 27.4779 6.36224 25.2537C8.52903 26.4238 10.9589 27.0205 13.4212 26.9873C15.7177 26.9857 17.9906 26.5237 20.1054 25.6286C31.9901 20.553 30.4284 3.67074 30.4284 2.96797L30.241 1.00019ZM18.8873 22.755C14.8112 24.4885 9.93859 24.1918 7.20557 22.0522C7.66748 20.5077 8.30135 19.02 9.09526 17.6169C9.71245 16.6071 10.4406 15.6695 11.2661 14.8214C12.1096 13.9643 13.0595 13.219 14.0928 12.6038C16.2278 11.3272 18.5955 10.4884 21.0581 10.1363L21.0581 8.57455C18.2247 8.47647 15.4088 9.05464 12.8434 10.2612C10.2204 11.5411 7.99585 13.5119 6.4091 15.9615C5.82059 16.8971 5.29873 17.873 4.84738 18.8819C4.12355 17.0303 3.91837 15.0163 4.25392 13.0567C4.70087 10.2676 6.55456 7.90623 9.15773 6.8098C11.025 5.93705 13.0624 5.48902 15.1235 5.49795C16.0918 5.49795 17.0444 5.59166 18.0439 5.66974C21.1741 6.07361 24.3523 5.88822 27.4143 5.12314C27.3049 9.4335 26.5241 19.5066 18.8873 22.755Z" fill="#2B3326" stroke="#2B3326" stroke-width="0.3"/>
</svg>
