<svg width="21" height="19" viewBox="0 0 21 19" fill="none" xmlns="http://www.w3.org/2000/svg">
<path d="M16.0286 18.6013C15.8925 18.6018 15.7598 18.5594 15.6492 18.4801L10.453 14.7129L5.25669 18.4801C5.02889 18.6453 4.72038 18.6442 4.49379 18.4773C4.2672 18.3104 4.17459 18.0162 4.26479 17.7496L6.29142 11.7469L1.03899 8.14492C0.805465 7.98496 0.703166 7.69168 0.78654 7.42119C0.869912 7.15069 1.11956 6.96589 1.40262 6.96515H7.8825L9.83802 0.947071C9.92444 0.680523 10.1727 0.5 10.453 0.5C10.7332 0.5 10.9815 0.680523 11.0679 0.947071L13.0234 6.96717H19.5033C19.7867 6.96703 20.0372 7.15152 20.1211 7.42225C20.205 7.69297 20.1028 7.98677 19.8689 8.14694L14.6145 11.7469L16.6399 17.748C16.7065 17.9451 16.6741 18.1622 16.553 18.3313C16.4318 18.5005 16.2367 18.6009 16.0286 18.6013Z" fill="#F9FAF3"/>
</svg>
