<svg width="18.169922" height="18.169983" viewBox="0 0 18.1699 18.17" fill="none" xmlns="http://www.w3.org/2000/svg" xmlns:xlink="http://www.w3.org/1999/xlink">
	<desc>
			Created with Pixso.
	</desc>
	<defs/>
	<g style="mix-blend-mode:normal">
		<path id="Path 439" d="M15.51 2.64C13.82 0.94 11.52 -0.01 9.11 6.1e-5C4.13 6.1e-5 0.07 4.04 0.07 9C0.07 10.58 0.49 12.13 1.27 13.5L0 18.17L4.79 16.91C6.12 17.63 7.6 18.01 9.11 18.01C14.1 18.01 18.16 13.97 18.16 9C18.17 6.61 17.21 4.32 15.51 2.64ZM9.11 16.49C7.77 16.49 6.44 16.12 5.29 15.44L5.01 15.28L2.17 16.02L2.93 13.26L2.75 12.97C2 11.78 1.6 10.4 1.6 8.99C1.6 4.87 4.97 1.51 9.12 1.51C11.11 1.51 13.03 2.3 14.43 3.71C15.85 5.11 16.64 7.01 16.63 9C16.63 13.13 13.26 16.49 9.11 16.49ZM13.24 10.88C13.01 10.77 11.9 10.23 11.69 10.15C11.49 10.07 11.34 10.04 11.19 10.26C11.04 10.48 10.6 10.99 10.47 11.14C10.34 11.29 10.21 11.31 9.98 11.2C9.76 11.08 9.03 10.85 8.17 10.08C7.49 9.48 7.04 8.75 6.91 8.52C6.78 8.3 6.89 8.18 7.01 8.06C7.11 7.96 7.23 7.8 7.34 7.67C7.46 7.54 7.5 7.45 7.57 7.3C7.64 7.14 7.61 7.01 7.55 6.9C7.5 6.79 7.05 5.68 6.86 5.23C6.67 4.79 6.49 4.85 6.35 4.85C6.22 4.84 6.07 4.84 5.91 4.84C5.68 4.84 5.46 4.95 5.31 5.12C5.1 5.34 4.52 5.89 4.52 7C4.52 8.11 5.33 9.17 5.45 9.32C5.56 9.48 7.04 11.75 9.31 12.72C9.84 12.95 10.26 13.09 10.59 13.2C11.14 13.37 11.62 13.34 12.02 13.29C12.45 13.22 13.35 12.74 13.54 12.22C13.73 11.69 13.73 11.24 13.67 11.15C13.62 11.05 13.46 10.99 13.24 10.88Z" fill="#F9FAF3" fill-opacity="1.000000" fill-rule="nonzero"/>
		<path id="Path 439" d="M9.11 6.1e-5C4.13 6.1e-5 0.07 4.04 0.07 9C0.07 10.58 0.49 12.13 1.27 13.5L0 18.17L4.79 16.91C6.12 17.63 7.6 18.01 9.11 18.01C14.1 18.01 18.16 13.97 18.16 9C18.17 6.61 17.21 4.32 15.51 2.64C13.82 0.94 11.52 -0.01 9.11 6.1e-5ZM5.29 15.44L5.01 15.28L2.17 16.02L2.93 13.26L2.75 12.97C2 11.78 1.6 10.4 1.6 8.99C1.6 4.87 4.97 1.51 9.12 1.51C11.11 1.51 13.03 2.3 14.43 3.71C15.85 5.11 16.64 7.01 16.63 9C16.63 13.13 13.26 16.49 9.11 16.49C7.77 16.49 6.44 16.12 5.29 15.44ZM11.69 10.15C11.49 10.07 11.34 10.04 11.19 10.26C11.04 10.48 10.6 10.99 10.47 11.14C10.34 11.29 10.21 11.31 9.98 11.2C9.76 11.08 9.03 10.85 8.17 10.08C7.49 9.48 7.04 8.75 6.91 8.52C6.78 8.3 6.89 8.18 7.01 8.06C7.11 7.96 7.23 7.8 7.34 7.67C7.46 7.54 7.5 7.45 7.57 7.3C7.64 7.14 7.61 7.01 7.55 6.9C7.5 6.79 7.05 5.68 6.86 5.23C6.67 4.79 6.49 4.85 6.35 4.85C6.22 4.84 6.07 4.84 5.91 4.84C5.68 4.84 5.46 4.95 5.31 5.12C5.1 5.34 4.52 5.89 4.52 7C4.52 8.11 5.33 9.17 5.45 9.32C5.56 9.48 7.04 11.75 9.31 12.72C9.84 12.95 10.26 13.09 10.59 13.2C11.14 13.37 11.62 13.34 12.02 13.29C12.45 13.22 13.35 12.74 13.54 12.22C13.73 11.69 13.73 11.24 13.67 11.15C13.62 11.05 13.46 10.99 13.24 10.88C13.01 10.77 11.9 10.23 11.69 10.15Z" stroke="#707070" stroke-opacity="0" stroke-width="3.000000"/>
	</g>
</svg>
