<svg width="18" height="19" viewBox="0 0 18 19" fill="none" xmlns="http://www.w3.org/2000/svg">
<path d="M15.2024 3.49002C13.5462 1.81849 11.2883 0.881814 8.93524 0.890154C4.05405 0.890154 0.0760065 4.86708 0.0715355 9.74938C0.0715355 11.3131 0.480629 12.8344 1.25299 14.1812L0 18.774L4.69899 17.5423C5.99893 18.2497 7.45527 18.6205 8.93523 18.6209H8.93971C13.822 18.6209 17.7989 14.644 17.8034 9.75721C17.8057 7.4049 16.869 5.14897 15.2013 3.49002L15.2024 3.49002ZM8.93524 17.1209C7.61518 17.1213 6.31938 16.7661 5.18409 16.0926L4.91583 15.9316L2.12818 16.6626L2.8726 13.9432L2.69823 13.6626C1.96031 12.4893 1.57003 11.1309 1.57266 9.74491C1.57266 5.69198 4.87783 2.38569 8.93971 2.38569C10.8942 2.38219 12.7692 3.15915 14.1484 4.54405C15.5324 5.92357 16.3082 7.79865 16.3034 9.75273C16.2989 13.8202 12.9938 17.1209 8.93524 17.1209ZM12.9759 11.606C12.7557 11.4953 11.6681 10.9599 11.4636 10.8839C11.2601 10.8112 11.1115 10.7732 10.9662 10.9945C10.8175 11.2147 10.3928 11.7166 10.2653 11.8608C10.1379 12.0095 10.006 12.0262 9.78472 11.9167C9.56453 11.8049 8.85029 11.5724 8.00527 10.8157C7.34581 10.2289 6.9043 9.50236 6.7724 9.28217C6.64498 9.06085 6.76011 8.94237 6.87076 8.83172C6.96801 8.73336 7.09096 8.5724 7.20162 8.44498C7.31339 8.31755 7.35028 8.22366 7.42293 8.07612C7.49558 7.92634 7.46093 7.79892 7.40616 7.68826C7.35028 7.57761 6.90877 6.48557 6.72211 6.04518C6.54327 5.61038 6.36107 5.67074 6.22471 5.66515C6.09729 5.65733 5.94863 5.65733 5.79997 5.65733C5.57302 5.66297 5.35871 5.76303 5.20868 5.93341C5.00525 6.15472 4.43632 6.69012 4.43632 7.78216C4.43632 8.87419 5.22992 9.92375 5.34169 10.0724C5.45123 10.2211 6.89983 12.4554 9.12302 13.4167C9.64836 13.6458 10.0619 13.7811 10.3849 13.8839C10.9159 14.0538 11.3954 14.0281 11.7777 13.9733C12.2024 13.9085 13.0865 13.4368 13.2732 12.9193C13.4565 12.4007 13.4565 11.958 13.4006 11.8653C13.3458 11.7714 13.1972 11.7166 12.9759 11.606Z" fill="#2B3326"/>
</svg>
